<svg viewBox="0 0 64 64" fill="none" xmlns="http://www.w3.org/2000/svg">
  <defs>
    <linearGradient id="kg-bg-dark" x1="8" y1="8" x2="56" y2="56" gradientUnits="userSpaceOnUse">
      <stop offset="0" stop-color="#C4B5FD"/>
      <stop offset="0.45" stop-color="#8B5CF6"/>
      <stop offset="1" stop-color="#6D28D9"/>
    </linearGradient>
    <linearGradient id="kg-sheen-dark" x1="14" y1="12" x2="50" y2="52" gradientUnits="userSpaceOnUse">
      <stop offset="0" stop-color="#FFFFFF" stop-opacity="0.34"/>
      <stop offset="1" stop-color="#E9D5FF" stop-opacity="0.06"/>
    </linearGradient>
    <filter id="kg-glow-dark" x="-8" y="-8" width="80" height="80" filterUnits="userSpaceOnUse" color-interpolation-filters="sRGB">
      <feFlood flood-opacity="0" result="BackgroundImageFix"/>
      <feColorMatrix in="SourceAlpha" type="matrix" values="0 0 0 0 0 0 0 0 0 0 0 0 0 0 0 0 0 0 127 0" result="hardAlpha"/>
      <feOffset/>
      <feGaussianBlur stdDeviation="4"/>
      <feColorMatrix type="matrix" values="0 0 0 0 0.545098 0 0 0 0 0.360784 0 0 0 0 0.964706 0 0 0 0.40 0"/>
      <feBlend mode="screen" in2="BackgroundImageFix" result="effect1_dropShadow_kg_dark"/>
      <feBlend mode="normal" in="SourceGraphic" in2="effect1_dropShadow_kg_dark" result="shape"/>
    </filter>
  </defs>
  <g filter="url(#kg-glow-dark)">
    <rect x="4" y="4" width="56" height="56" rx="16" fill="#2E1065"/>
    <rect x="4" y="4" width="56" height="56" rx="16" fill="url(#kg-bg-dark)"/>
    <rect x="4" y="4" width="56" height="56" rx="16" stroke="#F5D0FE" stroke-opacity="0.85" stroke-width="2.5"/>
    <rect x="10" y="10" width="44" height="44" rx="12" fill="url(#kg-sheen-dark)"/>
    <path d="M18 18V46" stroke="#2E1065" stroke-width="9" stroke-linecap="round"/>
    <path d="M18 32L28 20" stroke="#2E1065" stroke-width="9" stroke-linecap="round" stroke-linejoin="round"/>
    <path d="M18 32L29 45" stroke="#2E1065" stroke-width="9" stroke-linecap="round" stroke-linejoin="round"/>
    <path d="M18 18V46" stroke="#FFFFFF" stroke-width="5" stroke-linecap="round"/>
    <path d="M18 32L28 20" stroke="#FFFFFF" stroke-width="5" stroke-linecap="round" stroke-linejoin="round"/>
    <path d="M18 32L29 45" stroke="#FFFFFF" stroke-width="5" stroke-linecap="round" stroke-linejoin="round"/>
    <path d="M50 24C48.2 20.5 45.2 18 41.5 18C35.2 18 31 24.1 31 32C31 39.9 35.2 46 41.5 46C47 46 51.1 42.5 52 37H44.5" stroke="#2E1065" stroke-width="9" stroke-linecap="round" stroke-linejoin="round"/>
    <path d="M50 24C48.2 20.5 45.2 18 41.5 18C35.2 18 31 24.1 31 32C31 39.9 35.2 46 41.5 46C47 46 51.1 42.5 52 37H44.5" stroke="#F5D0FE" stroke-width="5" stroke-linecap="round" stroke-linejoin="round"/>
  </g>
</svg>
