<svg viewBox="0 0 64 64" fill="none" xmlns="http://www.w3.org/2000/svg">
  <defs>
    <linearGradient id="kg-bg" x1="8" y1="8" x2="56" y2="56" gradientUnits="userSpaceOnUse">
      <stop offset="0" stop-color="#8B5CF6"/>
      <stop offset="1" stop-color="#7C3AED"/>
    </linearGradient>
    <linearGradient id="kg-sheen" x1="14" y1="12" x2="50" y2="52" gradientUnits="userSpaceOnUse">
      <stop offset="0" stop-color="#DDD6FE" stop-opacity="0.35"/>
      <stop offset="1" stop-color="#FFFFFF" stop-opacity="0.08"/>
    </linearGradient>
  </defs>
  <rect x="4" y="4" width="56" height="56" rx="16" fill="#4C1D95"/>
  <rect x="4" y="4" width="56" height="56" rx="16" fill="url(#kg-bg)"/>
  <rect x="4" y="4" width="56" height="56" rx="16" stroke="#E9D5FF" stroke-opacity="0.7" stroke-width="2"/>
  <rect x="10" y="10" width="44" height="44" rx="12" fill="url(#kg-sheen)"/>
  <path d="M18 18V46" stroke="#3B0764" stroke-width="9" stroke-linecap="round"/>
  <path d="M18 32L28 20" stroke="#3B0764" stroke-width="9" stroke-linecap="round" stroke-linejoin="round"/>
  <path d="M18 32L29 45" stroke="#3B0764" stroke-width="9" stroke-linecap="round" stroke-linejoin="round"/>
  <path d="M18 18V46" stroke="#F8FAFC" stroke-width="5" stroke-linecap="round"/>
  <path d="M18 32L28 20" stroke="#F8FAFC" stroke-width="5" stroke-linecap="round" stroke-linejoin="round"/>
  <path d="M18 32L29 45" stroke="#F8FAFC" stroke-width="5" stroke-linecap="round" stroke-linejoin="round"/>
  <path d="M50 24C48.2 20.5 45.2 18 41.5 18C35.2 18 31 24.1 31 32C31 39.9 35.2 46 41.5 46C47 46 51.1 42.5 52 37H44.5" stroke="#3B0764" stroke-width="9" stroke-linecap="round" stroke-linejoin="round"/>
  <path d="M50 24C48.2 20.5 45.2 18 41.5 18C35.2 18 31 24.1 31 32C31 39.9 35.2 46 41.5 46C47 46 51.1 42.5 52 37H44.5" stroke="#E9D5FF" stroke-width="5" stroke-linecap="round" stroke-linejoin="round"/>
</svg>
